# xmcd
#
# Track frame offsets: 
#        150
#        12596
#        32469
#        53139
#
# Disc length: 888 seconds
#
# Revision: 0
# Processed by: cddbd v1.5PL3 Copyright (c) Steve Scherf et al.
# Submitted via: ExactAudioCopy v0.95a3
#
DISCID=28037604
DTITLE=Second Trial - Second Trial Demo-CD 2004
DYEAR=2004
DGENRE=Pop
TTITLE0=Keep On Running
TTITLE1=Another Cup Of Coffee
TTITLE2=Boys Of Summer
TTITLE3=I'm A Believer
EXTD=
EXTT0=
EXTT1=
EXTT2=
EXTT3=
PLAYORDER=
